# xmcd
#
# Track frame offsets: 
#        150
#        21977
#        40135
#        65316
#        95343
#
# Disc length: 1638 seconds
#
# Revision: 0
# Processed by: cddbd v1.5.2PL0 Copyright (c) Steve Scherf et al.
# Submitted via: ExactAudioCopyFreeDBPlugin 1.0
#
DISCID=37066405
DTITLE=Platinum Hook - Watching You
DYEAR=1983
DGENRE=R&B 80's
TTITLE0=Woo
TTITLE1=I Don't Wanna Live Without You
TTITLE2=What You Want
TTITLE3=Girl I'm Watching You
TTITLE4=Wonderful World
EXTD=
EXTT0=
EXTT1=
EXTT2=
EXTT3=
EXTT4=
PLAYORDER=
